<svg id="Capa_1" data-name="Capa 1" xmlns="http://www.w3.org/2000/svg" viewBox="0 0 512 512"><defs><style>.cls-1{fill:#fff;}</style></defs><path class="cls-1" d="M180.78,54.44a15,15,0,0,0-20.4-5.84,238.57,238.57,0,0,0-83.95,78.27,15,15,0,0,0,25.14,16.36,208.57,208.57,0,0,1,73.36-68.4A15,15,0,0,0,180.78,54.44Z"/><path class="cls-1" d="M442.62,88.42A235.3,235.3,0,0,0,275.1,19a15,15,0,0,0,0,30C389.19,49,482,141.86,482,256S389.19,463,275.1,463c-90.91,0-168.32-59-196-140.69l24.8-2.47A15,15,0,0,0,113,294.29L64,245.38a15.19,15.19,0,0,0-24.32,4.16L2.54,305.33a15,15,0,0,0,14,23.24l32-3.19C77.37,420.31,166.22,493,275.1,493,406,493,512,387,512,256A235.5,235.5,0,0,0,442.62,88.42Z"/><path class="cls-1" d="M275.1,121c-74.43,0-135,60.56-135,135s60.56,135,135,135,135-60.56,135-135S349.54,121,275.1,121ZM264,308.19H205c-4.64,0-11.28-3.16-11.28-8V284.11h0c0-26.08,52.24-41,52.24-62.11,0-5.32-3.31-11.8-12.6-11.8-6.63,0-12.44,3.33-12.44,12.46,0,4.82-5.14,9.47-13.6,9.47-6.63,0-11.61-3-11.61-13.46,0-20.26,18.58-31.88,37.48-31.88,19.24,0,38.65,12.12,38.65,34.37,0,36-51.25,47.83-51.25,63v1.49H264c4.15,0,7.8,5.15,7.8,11.13S268.14,308.19,264,308.19Zm88.4-25.57h-7.13v17.6c0,5.31-6.47,8-12.94,8s-12.93-2.66-12.93-8v-17.6H280.58c-7.86,0-10.53-8-7.3-14l38.31-75.23a11.66,11.66,0,0,1,10.78-6.64c4.48,0,12.94,3.82,12.94,9.8a8.08,8.08,0,0,1-.83,3.15l-29.36,59h14.27V247.07c0-5.48,6.46-7.8,12.93-7.8s12.94,2.32,12.94,7.8V258.7h7.13c5.31,0,8,6,8,12S356.37,282.62,352.39,282.62Z"/></svg>