<svg id="Capa_1" data-name="Capa 1" xmlns="http://www.w3.org/2000/svg" viewBox="0 0 512 512"><defs><style>.cls-1{fill:#fff;}</style></defs><path class="cls-1" d="M376,120a30,30,0,0,1-30-30V30a30,30,0,0,1,60,0V90A30,30,0,0,1,376,120Z"/><path class="cls-1" d="M457,60H436V90a60,60,0,0,1-120,0V60H196V90A60,60,0,0,1,76,90V60H55A55.06,55.06,0,0,0,0,115v67H512V115A55.06,55.06,0,0,0,457,60Z"/><path class="cls-1" d="M136,120a30,30,0,0,1-30-30V30a30,30,0,0,1,60,0V90A30,30,0,0,1,136,120Z"/><path class="cls-1" d="M0,212V457a55.06,55.06,0,0,0,55,55H457a55.06,55.06,0,0,0,55-55V212ZM271.76,407a60,60,0,0,1-119.42,8.35,61.23,61.23,0,0,1-.58-8.35,15,15,0,0,1,30,0,30.76,30.76,0,0,0,.29,4.2A30,30,0,1,0,211.76,377a15,15,0,0,1,0-30,30,30,0,1,0-29.43-35.83,15,15,0,1,1-29.44-5.78A60,60,0,1,1,251.39,362a59.85,59.85,0,0,1,20.37,45Zm88.48,45a15,15,0,0,1-30,0V287H306.76a15,15,0,0,1,0-30h38.48a15,15,0,0,1,15,15Z"/></svg>