<svg id="Capa_1" data-name="Capa 1" xmlns="http://www.w3.org/2000/svg" viewBox="0 0 38.64 38.63"><defs><style>.cls-1{fill:#f2bb3f;}</style></defs><path class="cls-1" d="M38.64,18.11A14,14,0,0,0,15.37,7.72,8.14,8.14,0,0,0,13,7.37c-3.7,0-6.7,2.24-6.7,6.47s3,8.83,6.7,8.83,6.71-4.61,6.71-8.83a7.38,7.38,0,0,0-.42-2.49,8.66,8.66,0,1,1,5.61,15.42,6.41,6.41,0,0,0-2.37-2l-4.35-2.07-2.86,6-1.42-3.86a4.54,4.54,0,0,1-.9.13,4.34,4.34,0,0,1-.89-.13l-1.5,4.06L7.65,22.74l-4.21,2A6.18,6.18,0,0,0,0,29.65v4.84H25.94V32A14,14,0,0,0,38.64,18.11ZM26,29.68v0a4.52,4.52,0,0,0-.61-2.13,9.44,9.44,0,1,0-6.4-16.9,5.48,5.48,0,0,0-1.37-1.71A11.63,11.63,0,1,1,26,29.68Zm-3.54-5.77a.94.94,0,0,1-.66-.28.93.93,0,0,1,0-1.31l2.66-2.66V14.77a.93.93,0,0,1,1.86,0V20a.9.9,0,0,1-.27.66l-2.93,2.93A.94.94,0,0,1,22.41,23.91Z"/></svg>