<?xml version="1.0" encoding="utf-8"?>
<!-- Generator: Adobe Illustrator 25.1.0, SVG Export Plug-In . SVG Version: 6.00 Build 0)  -->
<svg version="1.1" id="Capa_1" xmlns="http://www.w3.org/2000/svg" xmlns:xlink="http://www.w3.org/1999/xlink" x="0px" y="0px"
	 viewBox="0 0 16 16" style="enable-background:new 0 0 16 16;" xml:space="preserve">
<style type="text/css">
	.st0{fill-rule:evenodd;clip-rule:evenodd;fill:#FFFFFF;}
</style>
<path class="st0" d="M2.5,11.5C2.5,11.2,2.7,11,3,11h10c0.3,0,0.5,0.2,0.5,0.5S13.3,12,13,12H3C2.7,12,2.5,11.8,2.5,11.5z M2.5,7.5
	C2.5,7.2,2.7,7,3,7h10c0.3,0,0.5,0.2,0.5,0.5S13.3,8,13,8H3C2.7,8,2.5,7.8,2.5,7.5z M2.5,3.5C2.5,3.2,2.7,3,3,3h10
	c0.3,0,0.5,0.2,0.5,0.5S13.3,4,13,4H3C2.7,4,2.5,3.8,2.5,3.5z"/>
</svg>
