<svg id="Capa_1" data-name="Capa 1" xmlns="http://www.w3.org/2000/svg" viewBox="0 0 512 512"><defs><style>.cls-1{fill:#fff;}</style></defs><g id="_23-teamwork" data-name=" 23-teamwork"><g id="Glyph"><circle class="cls-1" cx="405.33" cy="192" r="64"/><circle class="cls-1" cx="106.67" cy="192" r="64"/><circle class="cls-1" cx="256" cy="149.33" r="85.33"/><path class="cls-1" d="M469.33,277.33H393.87A84.79,84.79,0,0,1,405.33,320V469.33h85.34A21.33,21.33,0,0,0,512,448V320A42.67,42.67,0,0,0,469.33,277.33Z"/><path class="cls-1" d="M118.15,277.33H42.67A42.67,42.67,0,0,0,0,320V448a21.33,21.33,0,0,0,21.33,21.33h85.34V320A84.81,84.81,0,0,1,118.15,277.33Z"/><path class="cls-1" d="M320,234.67H298.67L256,362.67l-42.67-128H192a64,64,0,0,0-64,64v192A21.33,21.33,0,0,0,149.33,512H362.67A21.33,21.33,0,0,0,384,490.67v-192A64,64,0,0,0,320,234.67Z"/></g></g></svg>