<?xml version="1.0" encoding="iso-8859-1"?>
<!-- Generator: Adobe Illustrator 19.0.0, SVG Export Plug-In . SVG Version: 6.00 Build 0)  -->
<svg version="1.1" id="Capa_1" xmlns="http://www.w3.org/2000/svg" xmlns:xlink="http://www.w3.org/1999/xlink" x="0px" y="0px"
	 viewBox="0 0 512 512" style="enable-background:new 0 0 512 512;" xml:space="preserve">
<g>
	<g>
		<path d="M294.557,353.687l-74.303-42.985C233.092,297.236,241,279.03,241,259v-60c0-41.355-33.645-75-75-75s-75,33.645-75,75v60
			c0,20.03,7.908,38.236,20.746,51.702l-74.302,42.985C14.348,367.048,0,391.923,0,418.606v40.575l9.461,3.759
			C59.659,482.886,112.326,493,166,493s106.341-10.114,156.539-30.06l9.461-3.759v-40.575
			C332,391.923,317.652,367.048,294.557,353.687z M166,438.924l-41.974-100.668l15.633-9.043C147.86,332.299,156.733,334,166,334
			c9.267,0,18.14-1.701,26.341-4.788l15.633,9.044L166,438.924z M211,259c0,24.813-20.187,45-45,45s-45-20.187-45-45v-60
			c0-3.303,0.368-6.521,1.047-9.624c17.98,22.799,45.644,36.146,74.573,36.146c4.771,0,9.577-0.386,14.38-1.13V259z"/>
	</g>
</g>
<g>
	<g>
		<circle cx="166" cy="354" r="20"/>
	</g>
</g>
<g>
	<g>
		<path d="M422,49V19h-30v30H120V19H90v30H0v296.172c6.573-6.731,14.087-12.632,22.423-17.454L30,323.335V169h35.374
			c12.94-43.325,53.15-75,100.626-75s87.686,31.675,100.626,75H482v200h-60v60h-60v30h81.213L512,390.213V49H422z"/>
	</g>
</g>
<g>
</g>
<g>
</g>
<g>
</g>
<g>
</g>
<g>
</g>
<g>
</g>
<g>
</g>
<g>
</g>
<g>
</g>
<g>
</g>
<g>
</g>
<g>
</g>
<g>
</g>
<g>
</g>
<g>
</g>
</svg>
