<svg id="Capa_1" data-name="Capa 1" xmlns="http://www.w3.org/2000/svg" viewBox="0 0 512 512"><defs><style>.cls-1{fill:#f2bb3f;}</style></defs><path class="cls-1" d="M294.56,353.69l-74.31-43A74.7,74.7,0,0,0,241,259V199a75,75,0,0,0-150,0v60a74.7,74.7,0,0,0,20.75,51.7l-74.31,43A75.22,75.22,0,0,0,0,418.61v40.57l9.46,3.76a422.63,422.63,0,0,0,313.08,0l9.46-3.76V418.61A75.22,75.22,0,0,0,294.56,353.69ZM166,438.92,124,338.26l15.63-9.05a74.82,74.82,0,0,0,52.68,0L208,338.26ZM211,259a45,45,0,0,1-90,0V199a44.87,44.87,0,0,1,1-9.62,95.24,95.24,0,0,0,74.57,36.14A93.19,93.19,0,0,0,211,224.39Z"/><circle class="cls-1" cx="166" cy="354" r="20"/><path class="cls-1" d="M422,49V19H392V49H120V19H90V49H0V345.17a104.43,104.43,0,0,1,22.42-17.45L30,323.34V169H65.37a105,105,0,0,1,201.26,0H482V369H422v60H362v30h81.21L512,390.21V49Z"/></svg>