<?xml version="1.0" encoding="iso-8859-1"?>
<!-- Generator: Adobe Illustrator 16.0.0, SVG Export Plug-In . SVG Version: 6.00 Build 0)  -->
<!DOCTYPE svg PUBLIC "-//W3C//DTD SVG 1.1//EN" "http://www.w3.org/Graphics/SVG/1.1/DTD/svg11.dtd">
<svg version="1.1" id="Capa_1" xmlns="http://www.w3.org/2000/svg" xmlns:xlink="http://www.w3.org/1999/xlink" x="0px" y="0px"
	 width="38.636px" height="38.635px" viewBox="0 0 38.636 38.635" style="enable-background:new 0 0 38.636 38.635;"
	 xml:space="preserve">
<g>
	<path d="M38.636,18.114c0-7.702-6.267-13.969-13.967-13.969c-3.576,0-6.83,1.36-9.304,3.578c-0.743-0.229-1.549-0.354-2.392-0.354
		c-3.701,0-6.701,2.242-6.701,6.467c0,4.224,3,8.832,6.701,8.832c3.701,0,6.703-4.605,6.703-8.832c0-0.927-0.152-1.752-0.416-2.486
		c1.482-1.189,3.361-1.905,5.406-1.905c4.777,0,8.666,3.887,8.666,8.667c0,4.71-3.779,8.547-8.467,8.656
		c-0.617-0.853-1.449-1.599-2.363-2.032l-4.35-2.068l-2.865,5.963l-1.421-3.859c-0.295,0.056-0.589,0.131-0.894,0.131
		c-0.309,0-0.602-0.075-0.896-0.131l-1.496,4.059l-2.926-6.094L3.44,24.739C1.548,25.637,0,27.85,0,29.648v4.843h25.945v-2.479
		C33.05,31.362,38.636,25.383,38.636,18.114z M25.949,29.678v-0.029c0-0.682-0.223-1.421-0.604-2.127
		c4.892-0.352,8.767-4.432,8.767-9.407c0-5.207-4.236-9.443-9.441-9.443c-2.154,0-4.135,0.732-5.726,1.95
		c-0.351-0.676-0.813-1.248-1.37-1.715c1.965-1.52,4.424-2.433,7.096-2.433c6.42,0,11.641,5.222,11.641,11.641
		C36.309,24.099,31.768,29.042,25.949,29.678z M22.408,23.905c-0.238,0-0.478-0.091-0.658-0.271c-0.365-0.364-0.365-0.955,0-1.319
		l2.658-2.658v-4.89c0-0.514,0.416-0.932,0.932-0.932c0.518,0,0.934,0.418,0.934,0.932v5.275c0,0.246-0.098,0.484-0.272,0.658
		l-2.933,2.932C22.886,23.814,22.648,23.905,22.408,23.905z"/>
</g>
<g>
</g>
<g>
</g>
<g>
</g>
<g>
</g>
<g>
</g>
<g>
</g>
<g>
</g>
<g>
</g>
<g>
</g>
<g>
</g>
<g>
</g>
<g>
</g>
<g>
</g>
<g>
</g>
<g>
</g>
</svg>
